<svg width="22" height="22" viewBox="0 0 22 22" fill="none" xmlns="http://www.w3.org/2000/svg">
<path fill-rule="evenodd" clip-rule="evenodd" d="M13.3962 2.91604H7.5748C5.7548 2.90904 4.26292 4.35979 4.22005 6.17892V15.5528C4.1798 17.4017 5.64542 18.9338 7.4943 18.9749C7.52142 18.9749 7.54767 18.9758 7.5748 18.9749H14.5652C16.3974 18.9005 17.8412 17.3868 17.828 15.5528V7.53254L13.3962 2.91604Z" stroke="white" stroke-width="1.5" stroke-linecap="round" stroke-linejoin="round"/>
<path d="M13.1665 2.90625V5.45162C13.1665 6.69412 14.171 7.70125 15.4135 7.70475H17.8241" stroke="white" stroke-width="1.5" stroke-linecap="round" stroke-linejoin="round"/>
<path d="M10.5547 14.9514C10.5082 15.0332 10.422 15.0827 10.3279 15.0827C10.1688 15.0827 10.0465 14.9417 10.069 14.7842L10.317 13.0482C10.4031 12.4457 9.93563 11.9068 9.32708 11.9068H8.89212C8.62898 11.9068 8.63351 11.7616 8.71972 11.6073C8.80592 11.4531 8.7424 11.571 8.75148 11.5529C9.32412 10.5407 10.1791 9.04217 11.3121 7.04864C11.3586 6.96686 11.4456 6.91602 11.5397 6.91602C11.6988 6.91602 11.8211 7.05697 11.7986 7.21451L11.5506 8.95052C11.4645 9.55295 11.932 10.0919 12.5405 10.0919H12.9755C13.1978 10.0919 13.2295 10.2417 13.1887 10.3233L13.1569 10.3914C11.6682 12.9947 10.8026 14.5156 10.5547 14.9514Z" fill="white"/>
</svg>
