<svg width="18" height="18" viewBox="0 0 18 18" fill="none" xmlns="http://www.w3.org/2000/svg">
<path d="M1.29199 1.70801L3.02533 2.00801L3.82783 11.5688C3.89199 12.3497 4.54449 12.9488 5.32783 12.9463H14.4187C15.1662 12.948 15.8003 12.398 15.9062 11.658L16.697 6.19301C16.7853 5.58217 16.3612 5.01551 15.7512 4.92717C15.6978 4.91967 3.30366 4.91551 3.30366 4.91551" stroke="#1D293F" stroke-width="1.5" stroke-linecap="round" stroke-linejoin="round"/>
<path d="M10.771 7.99577H13.0818" stroke="#1D293F" stroke-width="1.5" stroke-linecap="round" stroke-linejoin="round"/>
<path fill-rule="evenodd" clip-rule="evenodd" d="M4.96212 15.835C5.21296 15.835 5.41546 16.0383 5.41546 16.2883C5.41546 16.5391 5.21296 16.7425 4.96212 16.7425C4.71129 16.7425 4.50879 16.5391 4.50879 16.2883C4.50879 16.0383 4.71129 15.835 4.96212 15.835Z" fill="#1D293F" stroke="#1D293F" stroke-width="1.5" stroke-linecap="round" stroke-linejoin="round"/>
<path fill-rule="evenodd" clip-rule="evenodd" d="M14.3625 15.835C14.6133 15.835 14.8167 16.0383 14.8167 16.2883C14.8167 16.5391 14.6133 16.7425 14.3625 16.7425C14.1117 16.7425 13.9092 16.5391 13.9092 16.2883C13.9092 16.0383 14.1117 15.835 14.3625 15.835Z" fill="#1D293F" stroke="#1D293F" stroke-width="1.5" stroke-linecap="round" stroke-linejoin="round"/>
</svg>
