<svg width="32" height="32" viewBox="0 0 32 32" fill="none" xmlns="http://www.w3.org/2000/svg">
<path d="M16 32C7.16457 32 0 24.8354 0 16C0 7.16457 7.16457 0 16 0C24.8354 0 32 7.16457 32 16C32 24.8354 24.8354 32 16 32ZM21.1463 15.7531L13.3463 10.08C13.3036 10.049 13.2532 10.0304 13.2005 10.0263C13.1479 10.0221 13.0952 10.0327 13.0482 10.0567C13.0012 10.0807 12.9618 10.1173 12.9343 10.1624C12.9069 10.2074 12.8924 10.2592 12.8926 10.312V21.6549C12.8924 21.7076 12.9069 21.7594 12.9343 21.8045C12.9618 21.8495 13.0012 21.8861 13.0482 21.9101C13.0952 21.9342 13.1479 21.9447 13.2005 21.9406C13.2532 21.9365 13.3036 21.9179 13.3463 21.8869L21.1463 16.216C21.2024 16.1768 21.2423 16.1185 21.2585 16.052C21.2747 15.9856 21.2661 15.9155 21.2343 15.8549C21.2135 15.8147 21.1833 15.7802 21.1463 15.7543V15.7531Z" fill="#3493FE"/>
</svg>
