<svg width="28" height="28" viewBox="0 0 28 28" fill="none" xmlns="http://www.w3.org/2000/svg">
<g id="Iconly/Light/Paper">
<g id="Paper">
<path id="Stroke 1" fill-rule="evenodd" clip-rule="evenodd" d="M17.1939 3.22171H9.43209C7.00542 3.21238 5.01625 5.14671 4.95909 7.57221V20.0707C4.90542 22.5359 6.85959 24.5787 9.32475 24.6335C9.36092 24.6335 9.39592 24.6347 9.43209 24.6335H18.7526C21.1956 24.5344 23.1206 22.516 23.1031 20.0707V9.37705L17.1939 3.22171Z" stroke="white" stroke-width="2" stroke-linecap="round" stroke-linejoin="round"/>
<path id="Stroke 3" d="M16.8877 3.20801V6.60184C16.8877 8.25851 18.227 9.60134 19.8837 9.60601H23.0979" stroke="white" stroke-width="2" stroke-linecap="round" stroke-linejoin="round"/>
</g>
<path id="Vector" d="M13.4056 19.2695C13.3436 19.3786 13.2286 19.4446 13.1032 19.4446C12.891 19.4446 12.728 19.2566 12.758 19.0466L13.1431 16.3514C13.2291 15.749 12.7617 15.21 12.1531 15.21H11.1888C10.838 15.21 10.844 15.0164 10.959 14.8107C11.0739 14.605 10.9892 14.7623 11.0013 14.7381C11.7648 13.3886 12.9048 11.3905 14.4155 8.7325C14.4775 8.62346 14.5935 8.55566 14.7189 8.55566C14.9311 8.55566 15.0941 8.7436 15.0641 8.95366L14.6791 11.6488C14.593 12.2512 15.0605 12.7902 15.669 12.7902H16.6333C16.9297 12.7902 16.9721 12.9899 16.9176 13.0988L16.8753 13.1895C14.8903 16.6606 13.7361 18.6885 13.4056 19.2695Z" fill="white"/>
</g>
</svg>
