<svg width="36" height="36" viewBox="0 0 36 36" fill="none" xmlns="http://www.w3.org/2000/svg">
<rect width="36" height="36" rx="4" fill="black" fill-opacity="0.8"/>
<path d="M9 21C8.175 21 7.5 21.675 7.5 22.5V27C7.5 27.825 8.175 28.5 9 28.5H13.5C14.325 28.5 15 27.825 15 27C15 26.175 14.325 25.5 13.5 25.5H10.5V22.5C10.5 21.675 9.825 21 9 21ZM9 15C9.825 15 10.5 14.325 10.5 13.5V10.5H13.5C14.325 10.5 15 9.825 15 9C15 8.175 14.325 7.5 13.5 7.5H9C8.175 7.5 7.5 8.175 7.5 9V13.5C7.5 14.325 8.175 15 9 15ZM25.5 25.5H22.5C21.675 25.5 21 26.175 21 27C21 27.825 21.675 28.5 22.5 28.5H27C27.825 28.5 28.5 27.825 28.5 27V22.5C28.5 21.675 27.825 21 27 21C26.175 21 25.5 21.675 25.5 22.5V25.5ZM21 9C21 9.825 21.675 10.5 22.5 10.5H25.5V13.5C25.5 14.325 26.175 15 27 15C27.825 15 28.5 14.325 28.5 13.5V9C28.5 8.175 27.825 7.5 27 7.5H22.5C21.675 7.5 21 8.175 21 9Z" fill="white"/>
</svg>
