<svg width="32" height="32" viewBox="0 0 32 32" fill="none" xmlns="http://www.w3.org/2000/svg">
<circle cx="16" cy="16" r="16" fill="#3493FE"/>
<path d="M19.4626 9.81403C19.6414 9.63521 19.8537 9.49336 20.0874 9.39659C20.321 9.29981 20.5714 9.25 20.8243 9.25C21.0772 9.25 21.3276 9.29981 21.5612 9.39659C21.7949 9.49336 22.0072 9.63521 22.186 9.81403C22.3648 9.99285 22.5066 10.2051 22.6034 10.4388C22.7002 10.6724 22.75 10.9228 22.75 11.1757C22.75 11.4286 22.7002 11.679 22.6034 11.9126C22.5066 12.1463 22.3648 12.3586 22.186 12.5374L12.9946 21.7287L9.25 22.75L10.2713 19.0054L19.4626 9.81403Z" stroke="white" stroke-linecap="round" stroke-linejoin="round"/>
</svg>
