<svg width="24" height="24" viewBox="0 0 24 24" fill="none" xmlns="http://www.w3.org/2000/svg">
<path d="M1.2085 1.79199L3.63516 2.21199L4.75866 15.5972C4.8485 16.6903 5.762 17.5292 6.85866 17.5257H19.5858C20.6323 17.528 21.5202 16.758 21.6683 15.722L22.7755 8.07099C22.8992 7.21583 22.3053 6.42249 21.4513 6.29883C21.3767 6.28833 4.02483 6.28249 4.02483 6.28249" stroke="white" stroke-width="2" stroke-linecap="round" stroke-linejoin="round"/>
<path d="M14.4795 10.5941H17.7147" stroke="white" stroke-width="2" stroke-linecap="round" stroke-linejoin="round"/>
<path fill-rule="evenodd" clip-rule="evenodd" d="M6.34707 21.5703C6.69824 21.5703 6.98174 21.855 6.98174 22.205C6.98174 22.5561 6.69824 22.8408 6.34707 22.8408C5.9959 22.8408 5.7124 22.5561 5.7124 22.205C5.7124 21.855 5.9959 21.5703 6.34707 21.5703Z" fill="white" stroke="white" stroke-width="2" stroke-linecap="round" stroke-linejoin="round"/>
<path fill-rule="evenodd" clip-rule="evenodd" d="M19.5072 21.5703C19.8584 21.5703 20.1431 21.855 20.1431 22.205C20.1431 22.5561 19.8584 22.8408 19.5072 22.8408C19.1561 22.8408 18.8726 22.5561 18.8726 22.205C18.8726 21.855 19.1561 21.5703 19.5072 21.5703Z" fill="white" stroke="white" stroke-width="2" stroke-linecap="round" stroke-linejoin="round"/>
</svg>
