<svg width="28" height="28" viewBox="0 0 28 28" fill="none" xmlns="http://www.w3.org/2000/svg">
<path fill-rule="evenodd" clip-rule="evenodd" d="M14 0C6.26801 0 0 6.26801 0 14C0 21.732 6.26801 28 14 28C21.732 28 28 21.732 28 14C28 6.26801 21.732 0 14 0ZM18.7494 12.9998H19.4996C20.3276 12.9998 21 13.6722 21 14.5004V20.5005C21 21.3286 20.3276 22 19.4996 22H8.50042C7.67238 22 7 21.3286 7 20.5005V14.5004C7 13.6722 7.67238 12.9998 8.50042 12.9998H9.24956V10.7505C9.24956 8.13171 11.3813 6 13.9995 6C16.6187 6 18.7504 8.13171 18.7494 10.7505V12.9998ZM11.7499 10.7505V12.9998H16.2501V10.7505C16.2501 9.50943 15.2404 8.50023 13.9995 8.50023C12.7596 8.50023 11.7499 9.50943 11.7499 10.7505Z" fill="#6B7F99"/>
</svg>
